<svg width="92" height="64" viewBox="0 0 92 64" fill="none" xmlns="http://www.w3.org/2000/svg">
<path d="M58.2512 63.44C54.4752 63.44 50.7632 63.216 47.1152 62.768C43.5312 62.384 40.0432 61.776 36.6512 60.944L42.0272 45.104C44.4592 45.744 47.0832 46.288 49.8992 46.736C52.7152 47.12 55.3712 47.312 57.8672 47.312C59.9152 47.312 61.7072 47.28 63.2432 47.216C64.7792 47.088 66.2511 46.928 67.6591 46.736L68.4272 41.936L60.4592 41.168C54.1872 40.528 49.8352 39.12 47.4032 36.944C44.9712 34.704 43.7551 31.664 43.7551 27.824C43.7551 26.096 43.9472 24.176 44.3312 22.064C45.3552 16.624 46.8272 12.336 48.7472 9.2C50.7312 6.064 53.5472 3.856 57.1952 2.576C60.8432 1.232 65.6751 0.559998 71.6911 0.559998C75.2111 0.559998 78.6672 0.751999 82.0592 1.136C85.4512 1.52 88.7151 2.128 91.8512 2.96L86.8592 18.32C84.3632 17.872 81.9952 17.52 79.7552 17.264C77.5152 17.008 75.0191 16.88 72.2672 16.88C70.7952 16.88 69.5471 16.912 68.5231 16.976C67.4991 17.04 66.2512 17.168 64.7792 17.36L64.0112 22.064L70.4431 22.736C75.0511 23.184 78.6672 24.08 81.2912 25.424C83.9152 26.704 85.7712 28.336 86.8592 30.32C87.9472 32.24 88.4911 34.48 88.4911 37.04C88.4911 37.808 88.4272 38.608 88.2992 39.44C88.2352 40.208 88.1392 41.04 88.0112 41.936C87.1152 47.12 85.6751 51.184 83.6911 54.128C81.7071 57.072 79.3712 59.216 76.6832 60.56C73.9951 61.84 71.0511 62.64 67.8512 62.96C64.7151 63.28 61.5152 63.44 58.2512 63.44ZM47.2112 5.936L10.1552 2H51.4352C50.6032 2.512 49.8352 3.12 49.1312 3.824C48.4912 4.464 47.8512 5.168 47.2112 5.936ZM42.7952 15.44L2.95515 11.216H44.2352L42.7952 15.44ZM40.9712 24.752L0.267151 20.432H41.6432C41.5792 20.624 41.5152 20.816 41.4512 21.008C41.4512 21.2 41.4512 21.392 41.4512 21.584C41.3872 22.032 41.2912 22.512 41.1632 23.024C41.0992 23.536 41.0352 24.112 40.9712 24.752ZM41.7392 33.968L1.13115 29.648H40.9712C41.0352 30.48 41.0992 31.248 41.1632 31.952C41.2912 32.592 41.4832 33.264 41.7392 33.968ZM54.4112 43.184L3.62715 38.864H45.0032C47.1152 40.912 50.2512 42.352 54.4112 43.184ZM36.4592 52.304L1.99515 48.08H37.8992L36.4592 52.304ZM33.3872 61.616L0.363152 57.392H34.8272L33.3872 61.616Z" fill="white"/>
</svg>
